<?xml version="1.0" encoding="utf-8"?>
<!-- Generator: Adobe Illustrator 24.2.3, SVG Export Plug-In . SVG Version: 6.00 Build 0)  -->
<svg version="1.1" id="Layer_1" xmlns="http://www.w3.org/2000/svg" xmlns:xlink="http://www.w3.org/1999/xlink" x="0px" y="0px"
	 width="595.3px" height="186.6px" viewBox="0 0 595.3 186.6" style="enable-background:new 0 0 595.3 186.6;" xml:space="preserve"
	>
<style type="text/css">
	.st0{fill-rule:evenodd;clip-rule:evenodd;fill:url(#SVGID_1_);}
	.st1{fill-rule:evenodd;clip-rule:evenodd;fill:url(#SVGID_2_);}
	.st2{fill-rule:evenodd;clip-rule:evenodd;fill:url(#SVGID_3_);}
</style>
<linearGradient id="SVGID_1_" gradientUnits="userSpaceOnUse" x1="394.8928" y1="49.0262" x2="386.1143" y2="149.3645">
	<stop  offset="0" style="stop-color:#E6BE7A"/>
	<stop  offset="0.26" style="stop-color:#F9D58E"/>
	<stop  offset="0.69" style="stop-color:#DEB775"/>
	<stop  offset="1" style="stop-color:#AE814B"/>
</linearGradient>
<path class="st0" d="M225.2,39.8L191.2,0v72.1l13.6-5.9V35.7l20.4,23.9l20.4-23.9v30.5l13.6,5.9V0L225.2,39.8L225.2,39.8z
	 M205.4,80.5l-13.6,5.9v66.9c15.5,0,30.9,0,46.4,0v-17.5l-6,3.9h-26.8V80.5L205.4,80.5z M360.5,153.4v-33.2H343l3.9,6v9.1
	c-3.6,3.3-8.5,5.3-13.7,5.3c-11.4,0-20.6-9.2-20.6-20.6c0-11.4,9.2-20.6,20.6-20.6c6.6,0,12.4,3.1,16.2,7.9l10.2-7.7
	c-6.1-7.9-15.7-13-26.4-13c-18.4,0-33.4,14.9-33.4,33.4c0,18.4,14.9,33.4,33.4,33.4c6.5,0,12.5-1.8,17.6-5L360.5,153.4L360.5,153.4z
	 M562.9,98.5c7.7-2,21.1,1.3,30.1,7.5V86.6l-6,3.9c-13.7-4-24.3-4.8-30.9-0.7c-6.1,3.7-10.5,7.6-9.5,16.4c0.8,7,1.8,10.7,12.3,15.4
	c5.4,2.4,11,4.3,16.4,6.5c11.6,4.1,8.9,12.3-2.9,12.7c-9.8,0.4-18.7-2.5-27-7v19.4l6-3.9c9,1.7,17.6,4.5,25.4,3.2
	c8.1-1.3,17.8-6.3,18.3-16.7c0.6-11.5-7.6-16.6-18.5-20.2c-5.2-1.7-10.7-3.5-15.1-6.7C557,105.7,558.6,99.6,562.9,98.5L562.9,98.5z
	 M363.6,86.6l3.9,6v54.7l-3.9,6h53.6v-16.4l-6,3.9h-30v-14.6h26.5v-12.5h-26.5V99.1h30l6,3.9V86.6C399.3,86.6,381.4,86.6,363.6,86.6
	L363.6,86.6z M242.2,86.6l3.9,6v54.7l-3.9,6h53.6v-16.4l-6,3.9h-30v-14.6h26.5v-12.5h-26.5V99.1h30l6,3.9V86.6
	C277.9,86.6,260.1,86.6,242.2,86.6L242.2,86.6z M435.3,11.7l3.9-6h-21.4l3.9,6v61.8c15.5,0,30.9,0,46.4,0V56l-6,3.9h-26.8V11.7
	L435.3,11.7z M472.2,5.7l3.9,6v55.7l-3.9,6h53.6V56l-6,3.9h-30V46.4h26.5V32.8h-26.5V19.2h30l6,3.9V5.7C507.9,5.7,490,5.7,472.2,5.7
	L472.2,5.7z M474.9,153.4V92.6l3.7-5.9c-6.8,0-13.5,0-20.3,0l3.7,5.9v28.7l-37.2-34.6v60.8l-3.7,5.9c6.8,0,13.5,0,20.3,0l-3.7-5.9
	v-28.7L474.9,153.4L474.9,153.4z M481.6,86.6l3.9,5.9v54.8l-3.9,5.9c9.2,0,18.4,0,27.6,0c13,0,29.3-13.4,29.3-27.9V113
	c0-14.5-15.4-26.4-28.4-26.4C500.6,86.6,491.1,86.6,481.6,86.6L481.6,86.6z M498.5,99.5h10.6c8.9,0,16.2,7.3,16.2,16.2v7.6
	c0,8.9-8.2,17.1-17.1,17.1h-9.7V99.5L498.5,99.5z M411.5,11.7l3.9-6c-7.1,0-14.3,0-21.4,0l3.9,6v55.7l-3.9,6c7.1,0,14.3,0,21.4,0
	l-3.9-6V11.7L411.5,11.7z M336.4,73.5l3.9-6V11.7l-3.9-6l30.3,0c11.5,0,20.8,8.2,20.8,18.2l0,0c0,4.7-1.4,9-4.1,12.2
	c5,3.9,7.7,9.8,7.7,16.4l0,0c0,11.6-10.3,21-23,21L336.4,73.5L336.4,73.5z M353.8,62.8h14.9c4.9,0,8.9-4.7,8.9-10.4l0,0
	c0-5.7-4-10.4-8.9-10.4h-14.9V62.8L353.8,62.8z M353.8,31.4h12.7c4.2,0,7.6-3.4,7.6-7.6l0,0c0-4.2-3.4-7.6-7.6-7.6h-12.7V31.4
	L353.8,31.4z M299.7,5.7c18.7,0,33.9,15.2,33.9,33.9c0,18.7-15.2,33.9-33.9,33.9c-18.7,0-33.9-15.2-33.9-33.9
	C265.8,20.8,281,5.7,299.7,5.7L299.7,5.7z M291.7,39.6l8,9.7l8-9.7l-8-9.7L291.7,39.6L291.7,39.6z M299.7,19.1
	c-11.3,0-20.5,9.2-20.5,20.5c0,11.3,9.2,20.5,20.5,20.5c11.3,0,20.5-9.2,20.5-20.5C320.2,28.2,311.1,19.1,299.7,19.1z"/>
<linearGradient id="SVGID_2_" gradientUnits="userSpaceOnUse" x1="204.5701" y1="169.765" x2="508.7771" y2="180.3882">
	<stop  offset="0" style="stop-color:#A57F51"/>
	<stop  offset="0.53" style="stop-color:#B89465"/>
	<stop  offset="1" style="stop-color:#E5B789"/>
</linearGradient>
<path class="st1" d="M191.8,164.4h9.8c1.9,0,3.4,0.1,4.3,0.2c1,0.1,1.8,0.4,2.6,0.9c0.8,0.5,1.4,1.1,1.9,1.8
	c0.5,0.8,0.8,1.6,0.8,2.5c0,1-0.3,2-0.9,2.8c-0.6,0.9-1.5,1.5-2.5,1.9c1.5,0.4,2.6,1,3.4,2c0.8,0.9,1.2,2,1.2,3.3c0,1-0.3,2-0.8,2.9
	c-0.5,0.9-1.2,1.7-2.1,2.2c-0.9,0.6-2,0.9-3.3,1c-0.8,0.1-2.8,0.1-6,0.1h-8.4V164.4L191.8,164.4z M510.4,177.8v-3.4H522
	c0,2.9-0.5,4.9-1.3,6.8c-0.7,1.5-2.3,3.3-4.1,4c-1.9,0.7-4,1-6,1c-2.6,0-4.8-0.5-6.7-1.4c-1.9-1-3.3-2.3-4.3-4.1
	c-1-1.8-1.4-3.7-1.4-5.8c0-2.3,0.5-4.3,1.6-6.1c1.1-1.8,2.6-3.1,4.7-4.1c1.6-0.7,3.5-1.1,5.9-1.1c3,0,5.4,0.6,7.1,1.7
	c1.7,1.1,3.1,3.3,3.3,5.6l-4.9-0.1c-0.8-2.5-3.1-3.7-5.5-3.5c-3.7,0.3-4.7,4.7-4.7,7.3c0,2.8,1.6,6.3,4.6,6.3c4,0,4.6-1.8,4.6-3.1
	H510.4L510.4,177.8z M318.3,178.2v-3.4h11.5c0,2.9-0.5,4.9-1.3,6.8c-0.7,1.5-2.3,3.3-4.1,4c-1.9,0.7-4,1-6,1c-2.6,0-4.8-0.5-6.7-1.4
	c-1.9-1-3.3-2.3-4.3-4.1c-1-1.8-1.4-3.7-1.4-5.8c0-2.3,0.5-4.3,1.6-6.1c1.1-1.8,2.6-3.1,4.7-4.1c1.6-0.7,3.5-1.1,5.9-1.1
	c3,0,5.4,0.6,7.1,1.7c1.7,1.1,3.1,3.3,3.3,5.6l-4.9-0.1c-0.8-2.5-3.1-3.7-5.5-3.5c-3.7,0.3-4.7,4.7-4.7,7.3c0,2.8,1.6,6.3,4.6,6.3
	c4,0,4.6-1.8,4.6-3.1H318.3L318.3,178.2z M462,186.2v-21.8h4.8l10.1,14.6v-14.6h4.6v21.8h-5l-9.9-14.3v14.3H462L462,186.2z
	 M269.9,186.2v-21.8h4.8l10.1,14.6v-14.6h4.6v21.8h-5l-9.9-14.3v14.3H269.9L269.9,186.2z M444,186.2h-4.8l-1.9-5h-8.9l-1.8,5h-4.8
	l8.6-21.8h4.8L444,186.2L444,186.2z M435.8,177.5l-3.1-8.1l-3,8.1H435.8L435.8,177.5z M251.9,186.2H247l-1.9-5h-8.9l-1.8,5h-4.8
	l8.6-21.8h4.8L251.9,186.2L251.9,186.2z M243.6,177.5l-3.1-8.1l-3,8.1H243.6L243.6,177.5z M383.9,164.4h9.8c1.9,0,3.4,0.1,4.3,0.2
	c1,0.1,1.8,0.4,2.6,0.9c0.8,0.5,1.4,1.1,1.9,1.8c0.5,0.8,0.8,1.6,0.8,2.5c0,1-0.3,2-0.9,2.8c-0.6,0.9-1.5,1.5-2.5,1.9
	c1.5,0.4,2.6,1,3.4,2c0.8,0.9,1.2,2,1.2,3.3c0,1-0.3,2-0.8,2.9c-0.5,0.9-1.2,1.7-2.1,2.2c-0.9,0.6-2,0.9-3.3,1
	c-0.8,0.1-2.8,0.1-6,0.1h-8.4V164.4L383.9,164.4z M388.9,168v5h3.2c1.9,0,3.1,0,3.6-0.1c0.8-0.1,1.5-0.3,2-0.8
	c0.5-0.4,0.7-1,0.7-1.7c0-0.7-0.2-1.2-0.6-1.6c-0.4-0.4-1-0.7-1.9-0.8c-0.5-0.1-1.9-0.1-4.2-0.1H388.9L388.9,168z M388.9,176.7v5.8
	h4.6c1.8,0,2.9,0,3.4-0.1c0.7-0.1,1.3-0.4,1.8-0.9c0.5-0.5,0.7-1.1,0.7-1.9c0-0.7-0.2-1.2-0.5-1.7c-0.4-0.5-0.9-0.8-1.5-1
	c-0.7-0.2-2.1-0.3-4.4-0.3H388.9L388.9,176.7z M196.8,168v5h3.2c1.9,0,3.1,0,3.6-0.1c0.8-0.1,1.5-0.3,2-0.8c0.5-0.4,0.7-1,0.7-1.7
	c0-0.7-0.2-1.2-0.6-1.6c-0.4-0.4-1-0.7-1.9-0.8c-0.5-0.1-1.9-0.1-4.2-0.1H196.8L196.8,168z M196.8,176.7v5.8h4.6
	c1.8,0,2.9,0,3.4-0.1c0.7-0.1,1.3-0.4,1.8-0.9c0.5-0.5,0.7-1.1,0.7-1.9c0-0.7-0.2-1.2-0.5-1.7c-0.4-0.5-0.9-0.8-1.5-1
	c-0.7-0.2-2.1-0.3-4.4-0.3H196.8z"/>
<linearGradient id="SVGID_3_" gradientUnits="userSpaceOnUse" x1="37.8938" y1="-4.6667" x2="141.9553" y2="199.5655">
	<stop  offset="0.252" style="stop-color:#D5AB6A"/>
	<stop  offset="0.5" style="stop-color:#F9D58E"/>
	<stop  offset="0.7746" style="stop-color:#916832"/>
	<stop  offset="1" style="stop-color:#764D23"/>
</linearGradient>
<path class="st2" d="M20.2,7.1h65.4h9.9c16.7,0,20.7,4,27.8,11l43.6,43.2c7.5,7.4,12.2,12.1,12.2,29.3v9.9v64.2l-29.2-29V67.4
	L124,41.8L89.5,76L20.2,7.1L20.2,7.1z M162.7,186.2l-39.6-39.3V80.2l-33.6,33.4L55.9,80.2v72.2l-26.7-26.5V53.7L0,24.7v68.1v9.9
	c0,17.2,4.7,21.8,12.2,29.3l43.6,43.2c7.1,7,11.1,11,27.8,11h9.9H162.7L162.7,186.2z M41.2,186.2L0,145.3v40.9H41.2L41.2,186.2z
	 M137.8,7.1L179,48V7.1H137.8z"/>
</svg>
